<svg width="11" height="12" viewBox="0 0 11 12" fill="none" xmlns="http://www.w3.org/2000/svg">
<path d="M6.03125 0.75934L10.7781 5.46559C10.8485 5.53532 10.9044 5.61831 10.9425 5.70977C10.9807 5.80122 11.0003 5.89932 11.0003 5.9984C11.0003 6.09749 10.9807 6.19559 10.9425 6.28704C10.9044 6.37849 10.8485 6.46148 10.7781 6.53122L6.02813 11.2437C5.8868 11.383 5.69619 11.4607 5.4978 11.4602C5.2994 11.4596 5.10926 11.3807 4.96875 11.2406L4.28438 10.5562C4.21298 10.4844 4.15683 10.3988 4.1193 10.3047C4.08177 10.2107 4.06363 10.11 4.06596 10.0087C4.0683 9.90744 4.09106 9.80769 4.13289 9.71544C4.17472 9.62318 4.23475 9.54033 4.30938 9.47184L6.73438 7.24997H0.750002C0.651442 7.25021 0.553803 7.23098 0.462697 7.19338C0.371592 7.15578 0.288814 7.10054 0.219121 7.03085C0.149428 6.96115 0.0941925 6.87838 0.0565891 6.78727C0.0189857 6.69616 -0.000244975 6.59853 2.35573e-06 6.49997V5.49997C-0.000244975 5.4014 0.0189857 5.30377 0.0565891 5.21266C0.0941925 5.12155 0.149428 5.03878 0.219121 4.96908C0.288814 4.89939 0.371592 4.84416 0.462697 4.80655C0.553803 4.76895 0.651442 4.74972 0.750002 4.74997H6.73438L4.30938 2.52809C4.23516 2.45959 4.17555 2.37681 4.1341 2.28471C4.09266 2.19262 4.07025 2.0931 4.0682 1.99212C4.06616 1.89115 4.08453 1.79081 4.12222 1.69711C4.1599 1.60341 4.21612 1.51828 4.2875 1.44684L4.97188 0.762465C5.11206 0.62179 5.30232 0.542459 5.50092 0.541873C5.69952 0.541288 5.89024 0.619495 6.03125 0.75934Z" fill="#213F7D"/>
</svg>
